<svg xmlns="http://www.w3.org/2000/svg" xmlns:xlink="http://www.w3.org/1999/xlink" contentstyletype="text/css" data-diagram-type="SEQUENCE" height="576px" preserveAspectRatio="none" style="width:567px;height:576px;background:#FFFFFF;" version="1.1" viewBox="0 0 567 576" width="567px" zoomAndPan="magnify" overflow="visible"><?plantuml 1.2026.6?><defs/><g><rect fill="none" height="75.3984" style="stroke:#000000;stroke-width:1.5;" width="382.2705" x="10" y="341.2266"/><rect fill="none" height="46.2656" style="stroke:#000000;stroke-width:1.5;" width="382.2705" x="10" y="430.625"/><g class="participant-lifeline" data-entity-uid="part1" data-qualified-name="A_DSS22" data-source-line="2" id="part1-lifeline"><g><title>Administrador</title><rect fill="#000000" fill-opacity="0.00000" height="412.5938" width="8" x="68.54" y="81.2969"/><line style="stroke:#181818;stroke-width:0.5;stroke-dasharray:5,5;" x1="72" x2="72" y1="81.2969" y2="493.8906"/></g></g><g class="participant-lifeline" data-entity-uid="part2" data-qualified-name="S_DSS22" data-source-line="3" id="part2-lifeline"><g><title>Sistema</title><rect fill="#000000" fill-opacity="0.00000" height="412.5938" width="8" x="343.0757" y="81.2969"/><line style="stroke:#181818;stroke-width:0.5;stroke-dasharray:5,5;" x1="346.8809" x2="346.8809" y1="81.2969" y2="493.8906"/></g></g><g class="participant participant-head" data-entity-uid="part1" data-qualified-name="A_DSS22" data-source-line="2" id="part1-head"><text fill="#000000" font-family="sans-serif" font-size="14" lengthAdjust="spacing" textLength="99.0801" x="20" y="77.9951">Administrador</text><ellipse cx="72.54" cy="13.5" fill="#E2E2F0" rx="8" ry="8" style="stroke:#181818;stroke-width:0.5;"/><path d="M72.54,21.5 L72.54,48.5 M59.54,29.5 L85.54,29.5 M72.54,48.5 L59.54,63.5 M72.54,48.5 L85.54,63.5" fill="none" style="stroke:#181818;stroke-width:0.5;"/></g><g class="participant participant-tail" data-entity-uid="part1" data-qualified-name="A_DSS22" data-source-line="2" id="part1-tail"><text fill="#000000" font-family="sans-serif" font-size="14" lengthAdjust="spacing" textLength="99.0801" x="20" y="505.8857">Administrador</text><ellipse cx="72.54" cy="517.6875" fill="#E2E2F0" rx="8" ry="8" style="stroke:#181818;stroke-width:0.5;"/><path d="M72.54,525.6875 L72.54,552.6875 M59.54,533.6875 L85.54,533.6875 M72.54,552.6875 L59.54,567.6875 M72.54,552.6875 L85.54,567.6875" fill="none" style="stroke:#181818;stroke-width:0.5;"/></g><g class="participant participant-head" data-entity-uid="part2" data-qualified-name="S_DSS22" data-source-line="3" id="part2-head"><rect fill="#E2E2F0" height="30.2969" rx="2.5" ry="2.5" style="stroke:#181818;stroke-width:0.5;" width="70.3896" x="311.8809" y="50"/><text fill="#000000" font-family="sans-serif" font-size="14" lengthAdjust="spacing" textLength="56.3896" x="318.8809" y="69.9951">Sistema</text></g><g class="participant participant-tail" data-entity-uid="part2" data-qualified-name="S_DSS22" data-source-line="3" id="part2-tail"><rect fill="#E2E2F0" height="30.2969" rx="2.5" ry="2.5" style="stroke:#181818;stroke-width:0.5;" width="70.3896" x="311.8809" y="492.8906"/><text fill="#000000" font-family="sans-serif" font-size="14" lengthAdjust="spacing" textLength="56.3896" x="318.8809" y="512.8857">Sistema</text></g><g class="message" data-entity-1="part1" data-entity-2="part2" data-source-line="5" id="msg1"><polygon fill="#181818" points="335.0757,108.4297,345.0757,112.4297,335.0757,116.4297,339.0757,112.4297" style="stroke:#181818;stroke-width:1;stroke-linejoin:miter;stroke-miterlimit:10;"/><line style="stroke:#181818;stroke-width:1;" x1="72.54" x2="341.0757" y1="112.4297" y2="112.4297"/><text fill="#000000" font-family="sans-serif" font-size="13" lengthAdjust="spacing" textLength="200.5732" x="79.54" y="107.3638">Acceder al modulo de reportes</text></g><g class="message" data-entity-1="part2" data-entity-2="part1" data-source-line="6" id="msg2"><polygon fill="#181818" points="83.54,137.5625,73.54,141.5625,83.54,145.5625,79.54,141.5625" style="stroke:#181818;stroke-width:1;stroke-linejoin:miter;stroke-miterlimit:10;"/><line style="stroke:#181818;stroke-width:1;stroke-dasharray:2,2;" x1="77.54" x2="346.0757" y1="141.5625" y2="141.5625"/><text fill="#000000" font-family="sans-serif" font-size="13" lengthAdjust="spacing" textLength="201.3794" x="89.54" y="136.4966">Solicitar el periodo de consulta</text></g><g class="message" data-entity-1="part1" data-entity-2="part2" data-source-line="7" id="msg3"><polygon fill="#181818" points="335.0757,166.6953,345.0757,170.6953,335.0757,174.6953,339.0757,170.6953" style="stroke:#181818;stroke-width:1;stroke-linejoin:miter;stroke-miterlimit:10;"/><line style="stroke:#181818;stroke-width:1;" x1="72.54" x2="341.0757" y1="170.6953" y2="170.6953"/><text fill="#000000" font-family="sans-serif" font-size="13" lengthAdjust="spacing" textLength="144.5869" x="79.54" y="165.6294">Seleccionar las fechas</text></g><g class="message" data-entity-1="part2" data-entity-2="part2" data-source-line="8" id="msg4"><line style="stroke:#181818;stroke-width:1;" x1="347.0757" x2="389.0757" y1="199.8281" y2="199.8281"/><line style="stroke:#181818;stroke-width:1;" x1="389.0757" x2="389.0757" y1="199.8281" y2="212.8281"/><line style="stroke:#181818;stroke-width:1;" x1="347.0757" x2="389.0757" y1="212.8281" y2="212.8281"/><line style="stroke:#181818;stroke-width:1;" x1="348.0757" x2="358.0757" y1="212.8281" y2="208.8281"/><line style="stroke:#181818;stroke-width:1;" x1="348.0757" x2="358.0757" y1="212.8281" y2="216.8281"/><text fill="#000000" font-family="sans-serif" font-size="13" lengthAdjust="spacing" textLength="153.5181" x="354.0757" y="194.7622">Procesar la informacion</text></g><g class="message" data-entity-1="part2" data-entity-2="part2" data-source-line="9" id="msg5"><line style="stroke:#181818;stroke-width:1;" x1="347.0757" x2="389.0757" y1="241.9609" y2="241.9609"/><line style="stroke:#181818;stroke-width:1;" x1="389.0757" x2="389.0757" y1="241.9609" y2="254.9609"/><line style="stroke:#181818;stroke-width:1;" x1="348.0757" x2="389.0757" y1="254.9609" y2="254.9609"/><polygon fill="#181818" points="358.0757,250.9609,348.0757,254.9609,358.0757,258.9609,354.0757,254.9609" style="stroke:#181818;stroke-width:1;stroke-linejoin:miter;stroke-miterlimit:10;"/><text fill="#000000" font-family="sans-serif" font-size="13" lengthAdjust="spacing" textLength="200.5288" x="354.0757" y="236.895">Calcular indicadores de ventas</text></g><g class="message" data-entity-1="part2" data-entity-2="part2" data-source-line="10" id="msg6"><line style="stroke:#181818;stroke-width:1;" x1="347.0757" x2="389.0757" y1="284.0938" y2="284.0938"/><line style="stroke:#181818;stroke-width:1;" x1="389.0757" x2="389.0757" y1="284.0938" y2="297.0938"/><line style="stroke:#181818;stroke-width:1;" x1="348.0757" x2="389.0757" y1="297.0938" y2="297.0938"/><polygon fill="#181818" points="358.0757,293.0938,348.0757,297.0938,358.0757,301.0938,354.0757,297.0938" style="stroke:#181818;stroke-width:1;stroke-linejoin:miter;stroke-miterlimit:10;"/><text fill="#000000" font-family="sans-serif" font-size="13" lengthAdjust="spacing" textLength="120.8276" x="354.0757" y="279.0278">Generar el reporte</text></g><g class="message" data-entity-1="part2" data-entity-2="part1" data-source-line="11" id="msg7"><polygon fill="#181818" points="83.54,322.2266,73.54,326.2266,83.54,330.2266,79.54,326.2266" style="stroke:#181818;stroke-width:1;stroke-linejoin:miter;stroke-miterlimit:10;"/><line style="stroke:#181818;stroke-width:1;stroke-dasharray:2,2;" x1="77.54" x2="346.0757" y1="326.2266" y2="326.2266"/><text fill="#000000" font-family="sans-serif" font-size="13" lengthAdjust="spacing" textLength="130.8062" x="89.54" y="321.1606">Mostrar el resultado</text></g><path d="M10,341.2266 L79.4512,341.2266 L79.4512,348.3594 L69.4512,358.3594 L10,358.3594 L10,341.2266" fill="#EEEEEE" style="stroke:#000000;stroke-width:1.5;"/><rect fill="none" height="75.3984" style="stroke:#000000;stroke-width:1.5;" width="382.2705" x="10" y="341.2266"/><text fill="#000000" font-family="sans-serif" font-size="13" font-weight="700" lengthAdjust="spacing" textLength="24.4512" x="25" y="354.2935">opt</text><text fill="#000000" font-family="sans-serif" font-size="11" font-weight="700" lengthAdjust="spacing" textLength="173.0566" x="94.4512" y="353.437">[Generar para otro periodo]</text><g class="message" data-entity-1="part1" data-entity-2="part2" data-source-line="14" id="msg8"><polygon fill="#181818" points="335.0757,375.4922,345.0757,379.4922,335.0757,383.4922,339.0757,379.4922" style="stroke:#181818;stroke-width:1;stroke-linejoin:miter;stroke-miterlimit:10;"/><line style="stroke:#181818;stroke-width:1;" x1="72.54" x2="341.0757" y1="379.4922" y2="379.4922"/><text fill="#000000" font-family="sans-serif" font-size="13" lengthAdjust="spacing" textLength="173.145" x="79.54" y="374.4263">Seleccionar nuevas fechas</text></g><g class="message" data-entity-1="part2" data-entity-2="part1" data-source-line="15" id="msg9"><polygon fill="#181818" points="83.54,404.625,73.54,408.625,83.54,412.625,79.54,408.625" style="stroke:#181818;stroke-width:1;stroke-linejoin:miter;stroke-miterlimit:10;"/><line style="stroke:#181818;stroke-width:1;stroke-dasharray:2,2;" x1="77.54" x2="346.0757" y1="408.625" y2="408.625"/><text fill="#000000" font-family="sans-serif" font-size="13" lengthAdjust="spacing" textLength="161.8145" x="89.54" y="403.5591">Mostrar el nuevo reporte</text></g><path d="M10,430.625 L74.4429,430.625 L74.4429,437.7578 L64.4429,447.7578 L10,447.7578 L10,430.625" fill="#EEEEEE" style="stroke:#000000;stroke-width:1.5;"/><rect fill="none" height="46.2656" style="stroke:#000000;stroke-width:1.5;" width="382.2705" x="10" y="430.625"/><text fill="#000000" font-family="sans-serif" font-size="13" font-weight="700" lengthAdjust="spacing" textLength="19.4429" x="25" y="443.6919">alt</text><text fill="#000000" font-family="sans-serif" font-size="11" font-weight="700" lengthAdjust="spacing" textLength="207.1201" x="89.4429" y="442.8354">[No existen ventas en el periodo]</text><g class="message" data-entity-1="part2" data-entity-2="part1" data-source-line="19" id="msg10"><polygon fill="#181818" points="83.54,464.8906,73.54,468.8906,83.54,472.8906,79.54,468.8906" style="stroke:#181818;stroke-width:1;stroke-linejoin:miter;stroke-miterlimit:10;"/><line style="stroke:#181818;stroke-width:1;stroke-dasharray:2,2;" x1="77.54" x2="346.0757" y1="468.8906" y2="468.8906"/><text fill="#000000" font-family="sans-serif" font-size="13" lengthAdjust="spacing" textLength="250.5356" x="89.54" y="463.8247">Informar que no hay datos disponibles</text></g><?plantuml-src XPB1QiCm44Jl-eeXbvuC9SSU0YOneOUcmKvxBLjfGmIorfNbqFvzPST9N6WRduHvixCpqXrMLONbItO_doF3kjWKPLwYBBRFvQx0gi1hiTdbbI8T9M2MczfwsyP0Hi8Cr29_InFcSzLGY5RRXdp4h4e8rpG0rGYeaKIsEF_30tAjsN00ETHYEYSmZC2DXCYjEdDPqkGNJIKkEKKAO8U6WnKpoBJujdEHVdUgsB7MLdpIkRJNdlM19XQBARmDehaTI5Y_br1JBvtG4tX9JdSkmTORg_jckEttERAFFnmccZLx3gS4Oze_mZv9t_O83l6CA2LDl8n8pHCa1ZbteP2-cntuZe_N6dh9pGLwYLpsPM-K8XUn4V1dV-D-Z8nqkbxDFxCVJzK6V7GCBpZG5mn5IVNPjX5ltrrw1Sde6m00?></g></svg>