<svg xmlns="http://www.w3.org/2000/svg" xmlns:xlink="http://www.w3.org/1999/xlink" contentstyletype="text/css" data-diagram-type="SEQUENCE" height="592px" preserveAspectRatio="none" style="width:541px;height:592px;background:#FFFFFF;" version="1.1" viewBox="0 0 541 592" width="541px" zoomAndPan="magnify" overflow="visible"><?plantuml 1.2026.6?><defs/><g><rect fill="none" height="104.5313" style="stroke:#000000;stroke-width:1.5;" width="373.5444" x="10" y="328.2266"/><rect fill="none" height="46.2656" style="stroke:#000000;stroke-width:1.5;" width="355.6841" x="10" y="446.7578"/><g class="participant-lifeline" data-entity-uid="part1" data-qualified-name="A_DSS13" data-source-line="2" id="part1-lifeline"><g><title>Personal de cocina</title><rect fill="#000000" fill-opacity="0.00000" height="428.7266" width="8" x="84.8574" y="81.2969"/><line style="stroke:#181818;stroke-width:0.5;stroke-dasharray:5,5;" x1="88" x2="88" y1="81.2969" y2="510.0234"/></g></g><g class="participant-lifeline" data-entity-uid="part2" data-qualified-name="S_DSS13" data-source-line="3" id="part2-lifeline"><g><title>Sistema</title><rect fill="#000000" fill-opacity="0.00000" height="428.7266" width="8" x="316.4893" y="81.2969"/><line style="stroke:#181818;stroke-width:0.5;stroke-dasharray:5,5;" x1="320.2944" x2="320.2944" y1="81.2969" y2="510.0234"/></g></g><g class="participant participant-head" data-entity-uid="part1" data-qualified-name="A_DSS13" data-source-line="2" id="part1-head"><text fill="#000000" font-family="sans-serif" font-size="14" lengthAdjust="spacing" textLength="131.7148" x="20" y="77.9951">Personal de cocina</text><ellipse cx="88.8574" cy="13.5" fill="#E2E2F0" rx="8" ry="8" style="stroke:#181818;stroke-width:0.5;"/><path d="M88.8574,21.5 L88.8574,48.5 M75.8574,29.5 L101.8574,29.5 M88.8574,48.5 L75.8574,63.5 M88.8574,48.5 L101.8574,63.5" fill="none" style="stroke:#181818;stroke-width:0.5;"/></g><g class="participant participant-tail" data-entity-uid="part1" data-qualified-name="A_DSS13" data-source-line="2" id="part1-tail"><text fill="#000000" font-family="sans-serif" font-size="14" lengthAdjust="spacing" textLength="131.7148" x="20" y="522.0186">Personal de cocina</text><ellipse cx="88.8574" cy="533.8203" fill="#E2E2F0" rx="8" ry="8" style="stroke:#181818;stroke-width:0.5;"/><path d="M88.8574,541.8203 L88.8574,568.8203 M75.8574,549.8203 L101.8574,549.8203 M88.8574,568.8203 L75.8574,583.8203 M88.8574,568.8203 L101.8574,583.8203" fill="none" style="stroke:#181818;stroke-width:0.5;"/></g><g class="participant participant-head" data-entity-uid="part2" data-qualified-name="S_DSS13" data-source-line="3" id="part2-head"><rect fill="#E2E2F0" height="30.2969" rx="2.5" ry="2.5" style="stroke:#181818;stroke-width:0.5;" width="70.3896" x="285.2944" y="50"/><text fill="#000000" font-family="sans-serif" font-size="14" lengthAdjust="spacing" textLength="56.3896" x="292.2944" y="69.9951">Sistema</text></g><g class="participant participant-tail" data-entity-uid="part2" data-qualified-name="S_DSS13" data-source-line="3" id="part2-tail"><rect fill="#E2E2F0" height="30.2969" rx="2.5" ry="2.5" style="stroke:#181818;stroke-width:0.5;" width="70.3896" x="285.2944" y="509.0234"/><text fill="#000000" font-family="sans-serif" font-size="14" lengthAdjust="spacing" textLength="56.3896" x="292.2944" y="529.0186">Sistema</text></g><g class="message" data-entity-1="part1" data-entity-2="part2" data-source-line="5" id="msg1"><polygon fill="#181818" points="308.4893,108.4297,318.4893,112.4297,308.4893,116.4297,312.4893,112.4297" style="stroke:#181818;stroke-width:1;stroke-linejoin:miter;stroke-miterlimit:10;"/><line style="stroke:#181818;stroke-width:1;" x1="88.8574" x2="314.4893" y1="112.4297" y2="112.4297"/><text fill="#000000" font-family="sans-serif" font-size="13" lengthAdjust="spacing" textLength="190.3726" x="95.8574" y="107.3638">Consultar los pedidos activos</text></g><g class="message" data-entity-1="part2" data-entity-2="part1" data-source-line="6" id="msg2"><polygon fill="#181818" points="99.8574,137.5625,89.8574,141.5625,99.8574,145.5625,95.8574,141.5625" style="stroke:#181818;stroke-width:1;stroke-linejoin:miter;stroke-miterlimit:10;"/><line style="stroke:#181818;stroke-width:1;stroke-dasharray:2,2;" x1="93.8574" x2="319.4893" y1="141.5625" y2="141.5625"/><text fill="#000000" font-family="sans-serif" font-size="13" lengthAdjust="spacing" textLength="177.7661" x="105.8574" y="136.4966">Mostrar los pedidos activos</text></g><g class="message" data-entity-1="part1" data-entity-2="part2" data-source-line="7" id="msg3"><polygon fill="#181818" points="308.4893,166.6953,318.4893,170.6953,308.4893,174.6953,312.4893,170.6953" style="stroke:#181818;stroke-width:1;stroke-linejoin:miter;stroke-miterlimit:10;"/><line style="stroke:#181818;stroke-width:1;" x1="88.8574" x2="314.4893" y1="170.6953" y2="170.6953"/><text fill="#000000" font-family="sans-serif" font-size="13" lengthAdjust="spacing" textLength="144.333" x="95.8574" y="165.6294">Seleccionar un pedido</text></g><g class="message" data-entity-1="part1" data-entity-2="part2" data-source-line="8" id="msg4"><polygon fill="#181818" points="308.4893,195.8281,318.4893,199.8281,308.4893,203.8281,312.4893,199.8281" style="stroke:#181818;stroke-width:1;stroke-linejoin:miter;stroke-miterlimit:10;"/><line style="stroke:#181818;stroke-width:1;" x1="88.8574" x2="314.4893" y1="199.8281" y2="199.8281"/><text fill="#000000" font-family="sans-serif" font-size="13" lengthAdjust="spacing" textLength="145.2026" x="95.8574" y="194.7622">Elegir el nuevo estado</text></g><g class="message" data-entity-1="part2" data-entity-2="part2" data-source-line="9" id="msg5"><line style="stroke:#181818;stroke-width:1;" x1="320.4893" x2="362.4893" y1="228.9609" y2="228.9609"/><line style="stroke:#181818;stroke-width:1;" x1="362.4893" x2="362.4893" y1="228.9609" y2="241.9609"/><line style="stroke:#181818;stroke-width:1;" x1="321.4893" x2="362.4893" y1="241.9609" y2="241.9609"/><polygon fill="#181818" points="331.4893,237.9609,321.4893,241.9609,331.4893,245.9609,327.4893,241.9609" style="stroke:#181818;stroke-width:1;stroke-linejoin:miter;stroke-miterlimit:10;"/><text fill="#000000" font-family="sans-serif" font-size="13" lengthAdjust="spacing" textLength="129.4731" x="327.4893" y="223.895">Validar la transicion</text></g><g class="message" data-entity-1="part2" data-entity-2="part2" data-source-line="10" id="msg6"><line style="stroke:#181818;stroke-width:1;" x1="320.4893" x2="362.4893" y1="271.0938" y2="271.0938"/><line style="stroke:#181818;stroke-width:1;" x1="362.4893" x2="362.4893" y1="271.0938" y2="284.0938"/><line style="stroke:#181818;stroke-width:1;" x1="321.4893" x2="362.4893" y1="284.0938" y2="284.0938"/><polygon fill="#181818" points="331.4893,280.0938,321.4893,284.0938,331.4893,288.0938,327.4893,284.0938" style="stroke:#181818;stroke-width:1;stroke-linejoin:miter;stroke-miterlimit:10;"/><text fill="#000000" font-family="sans-serif" font-size="13" lengthAdjust="spacing" textLength="201.062" x="327.4893" y="266.0278">Actualizar el estado del pedido</text></g><g class="message" data-entity-1="part2" data-entity-2="part1" data-source-line="11" id="msg7"><polygon fill="#181818" points="99.8574,309.2266,89.8574,313.2266,99.8574,317.2266,95.8574,313.2266" style="stroke:#181818;stroke-width:1;stroke-linejoin:miter;stroke-miterlimit:10;"/><line style="stroke:#181818;stroke-width:1;stroke-dasharray:2,2;" x1="93.8574" x2="319.4893" y1="313.2266" y2="313.2266"/><text fill="#000000" font-family="sans-serif" font-size="13" lengthAdjust="spacing" textLength="207.6318" x="105.8574" y="308.1606">Notificar visualmente al mesero</text></g><path d="M10,328.2266 L79.4512,328.2266 L79.4512,335.3594 L69.4512,345.3594 L10,345.3594 L10,328.2266" fill="#EEEEEE" style="stroke:#000000;stroke-width:1.5;"/><rect fill="none" height="104.5313" style="stroke:#000000;stroke-width:1.5;" width="373.5444" x="10" y="328.2266"/><text fill="#000000" font-family="sans-serif" font-size="13" font-weight="700" lengthAdjust="spacing" textLength="24.4512" x="25" y="341.2935">opt</text><text fill="#000000" font-family="sans-serif" font-size="11" font-weight="700" lengthAdjust="spacing" textLength="284.0933" x="94.4512" y="340.437">[Actualizar varios pedidos consecutivamente]</text><g class="message" data-entity-1="part1" data-entity-2="part2" data-source-line="14" id="msg8"><polygon fill="#181818" points="308.4893,362.4922,318.4893,366.4922,308.4893,370.4922,312.4893,366.4922" style="stroke:#181818;stroke-width:1;stroke-linejoin:miter;stroke-miterlimit:10;"/><line style="stroke:#181818;stroke-width:1;" x1="88.8574" x2="314.4893" y1="366.4922" y2="366.4922"/><text fill="#000000" font-family="sans-serif" font-size="13" lengthAdjust="spacing" textLength="203.417" x="95.8574" y="361.4263">Seleccionar el siguiente pedido</text></g><g class="message" data-entity-1="part2" data-entity-2="part1" data-source-line="15" id="msg9"><polygon fill="#181818" points="99.8574,391.625,89.8574,395.625,99.8574,399.625,95.8574,395.625" style="stroke:#181818;stroke-width:1;stroke-linejoin:miter;stroke-miterlimit:10;"/><line style="stroke:#181818;stroke-width:1;stroke-dasharray:2,2;" x1="93.8574" x2="319.4893" y1="395.625" y2="395.625"/><text fill="#000000" font-family="sans-serif" font-size="13" lengthAdjust="spacing" textLength="117.0127" x="105.8574" y="390.5591">Mostrar su estado</text></g><g class="message" data-entity-1="part1" data-entity-2="part2" data-source-line="16" id="msg10"><polygon fill="#181818" points="308.4893,420.7578,318.4893,424.7578,308.4893,428.7578,312.4893,424.7578" style="stroke:#181818;stroke-width:1;stroke-linejoin:miter;stroke-miterlimit:10;"/><line style="stroke:#181818;stroke-width:1;" x1="88.8574" x2="314.4893" y1="424.7578" y2="424.7578"/><text fill="#000000" font-family="sans-serif" font-size="13" lengthAdjust="spacing" textLength="128.6162" x="95.8574" y="419.6919">Actualizar el estado</text></g><path d="M10,446.7578 L74.4429,446.7578 L74.4429,453.8906 L64.4429,463.8906 L10,463.8906 L10,446.7578" fill="#EEEEEE" style="stroke:#000000;stroke-width:1.5;"/><rect fill="none" height="46.2656" style="stroke:#000000;stroke-width:1.5;" width="355.6841" x="10" y="446.7578"/><text fill="#000000" font-family="sans-serif" font-size="13" font-weight="700" lengthAdjust="spacing" textLength="19.4429" x="25" y="459.8247">alt</text><text fill="#000000" font-family="sans-serif" font-size="11" font-weight="700" lengthAdjust="spacing" textLength="262.0503" x="89.4429" y="458.9683">[Intento de regresar a un estado anterior]</text><g class="message" data-entity-1="part2" data-entity-2="part1" data-source-line="20" id="msg11"><polygon fill="#181818" points="99.8574,481.0234,89.8574,485.0234,99.8574,489.0234,95.8574,485.0234" style="stroke:#181818;stroke-width:1;stroke-linejoin:miter;stroke-miterlimit:10;"/><line style="stroke:#181818;stroke-width:1;stroke-dasharray:2,2;" x1="93.8574" x2="319.4893" y1="485.0234" y2="485.0234"/><text fill="#000000" font-family="sans-serif" font-size="13" lengthAdjust="spacing" textLength="122.4272" x="105.8574" y="479.9575">Rechazar la accion</text></g><?plantuml-src XP8nQyCm48Lt_OeZIoT3GxOE1HDx2AHDY98ENSeXNzq3HJAIx26_lcV7BXcSr8l1VE_UktT-Wa9hM9-ov-KACiZNnrE-tNpc1oZrCIzsK9HRs9V5fjWfDCa7MEmfHE_GGaLWl6672y08-PTCMgvKWo6nuGPTWeNccEXy1VG8g964x7Nw1Y-mzYwsDc40woCqL74bRx7apaSrSPbeyZ_Dcuyft57CccYoP0nB-W2j6pNpQ6cfvW1amRNKUQ2OK5WzntwWvQhFWI1vNEJUOXxDJMg5lk0m-ZfKYhHJblb5tttYRpOYwZYA_amk4SW9pXGfUALyasv7TnZufXCZtP9ffHWSb0ha-RSW2HMvRddm6kFrmiUtYErKrLsJkGuKkKefj0asOkTINme4gWD5mR2_rbYM_5SasuK7MGvaVl1oFGWEw_JZVm40?></g></svg>