<svg xmlns="http://www.w3.org/2000/svg" xmlns:xlink="http://www.w3.org/1999/xlink" contentstyletype="text/css" data-diagram-type="SEQUENCE" height="550px" preserveAspectRatio="none" style="width:565px;height:550px;background:#FFFFFF;" version="1.1" viewBox="0 0 565 550" width="565px" zoomAndPan="magnify" overflow="visible"><?plantuml 1.2026.6?><defs/><g><rect fill="none" height="75.3984" style="stroke:#000000;stroke-width:1.5;" width="372.3525" x="10" y="315.2266"/><rect fill="none" height="46.2656" style="stroke:#000000;stroke-width:1.5;" width="372.3525" x="10" y="404.625"/><g class="participant-lifeline" data-entity-uid="part1" data-qualified-name="A_DSS25" data-source-line="2" id="part1-lifeline"><g><title>Cliente</title><rect fill="#000000" fill-opacity="0.00000" height="386.5938" width="8" x="43.5718" y="81.2969"/><line style="stroke:#181818;stroke-width:0.5;stroke-dasharray:5,5;" x1="47" x2="47" y1="81.2969" y2="467.8906"/></g></g><g class="participant-lifeline" data-entity-uid="part2" data-qualified-name="S_DSS25" data-source-line="3" id="part2-lifeline"><g><title>Sistema</title><rect fill="#000000" fill-opacity="0.00000" height="386.5938" width="8" x="333.1577" y="81.2969"/><line style="stroke:#181818;stroke-width:0.5;stroke-dasharray:5,5;" x1="336.9629" x2="336.9629" y1="81.2969" y2="467.8906"/></g></g><g class="participant participant-head" data-entity-uid="part1" data-qualified-name="A_DSS25" data-source-line="2" id="part1-head"><text fill="#000000" font-family="sans-serif" font-size="14" lengthAdjust="spacing" textLength="49.1436" x="20" y="77.9951">Cliente</text><ellipse cx="47.5718" cy="13.5" fill="#E2E2F0" rx="8" ry="8" style="stroke:#181818;stroke-width:0.5;"/><path d="M47.5718,21.5 L47.5718,48.5 M34.5718,29.5 L60.5718,29.5 M47.5718,48.5 L34.5718,63.5 M47.5718,48.5 L60.5718,63.5" fill="none" style="stroke:#181818;stroke-width:0.5;"/></g><g class="participant participant-tail" data-entity-uid="part1" data-qualified-name="A_DSS25" data-source-line="2" id="part1-tail"><text fill="#000000" font-family="sans-serif" font-size="14" lengthAdjust="spacing" textLength="49.1436" x="20" y="479.8857">Cliente</text><ellipse cx="47.5718" cy="491.6875" fill="#E2E2F0" rx="8" ry="8" style="stroke:#181818;stroke-width:0.5;"/><path d="M47.5718,499.6875 L47.5718,526.6875 M34.5718,507.6875 L60.5718,507.6875 M47.5718,526.6875 L34.5718,541.6875 M47.5718,526.6875 L60.5718,541.6875" fill="none" style="stroke:#181818;stroke-width:0.5;"/></g><g class="participant participant-head" data-entity-uid="part2" data-qualified-name="S_DSS25" data-source-line="3" id="part2-head"><rect fill="#E2E2F0" height="30.2969" rx="2.5" ry="2.5" style="stroke:#181818;stroke-width:0.5;" width="70.3896" x="301.9629" y="50"/><text fill="#000000" font-family="sans-serif" font-size="14" lengthAdjust="spacing" textLength="56.3896" x="308.9629" y="69.9951">Sistema</text></g><g class="participant participant-tail" data-entity-uid="part2" data-qualified-name="S_DSS25" data-source-line="3" id="part2-tail"><rect fill="#E2E2F0" height="30.2969" rx="2.5" ry="2.5" style="stroke:#181818;stroke-width:0.5;" width="70.3896" x="301.9629" y="466.8906"/><text fill="#000000" font-family="sans-serif" font-size="14" lengthAdjust="spacing" textLength="56.3896" x="308.9629" y="486.8857">Sistema</text></g><g class="message" data-entity-1="part1" data-entity-2="part2" data-source-line="5" id="msg1"><polygon fill="#181818" points="325.1577,108.4297,335.1577,112.4297,325.1577,116.4297,329.1577,112.4297" style="stroke:#181818;stroke-width:1;stroke-linejoin:miter;stroke-miterlimit:10;"/><line style="stroke:#181818;stroke-width:1;" x1="47.5718" x2="331.1577" y1="112.4297" y2="112.4297"/><text fill="#000000" font-family="sans-serif" font-size="13" lengthAdjust="spacing" textLength="85.2363" x="54.5718" y="107.3638">Iniciar sesion</text></g><g class="message" data-entity-1="part2" data-entity-2="part1" data-source-line="6" id="msg2"><polygon fill="#181818" points="58.5718,137.5625,48.5718,141.5625,58.5718,145.5625,54.5718,141.5625" style="stroke:#181818;stroke-width:1;stroke-linejoin:miter;stroke-miterlimit:10;"/><line style="stroke:#181818;stroke-width:1;stroke-dasharray:2,2;" x1="52.5718" x2="336.1577" y1="141.5625" y2="141.5625"/><text fill="#000000" font-family="sans-serif" font-size="13" lengthAdjust="spacing" textLength="157.2251" x="64.5718" y="136.4966">Confirmar autenticacion</text></g><g class="message" data-entity-1="part1" data-entity-2="part2" data-source-line="7" id="msg3"><polygon fill="#181818" points="325.1577,166.6953,335.1577,170.6953,325.1577,174.6953,329.1577,170.6953" style="stroke:#181818;stroke-width:1;stroke-linejoin:miter;stroke-miterlimit:10;"/><line style="stroke:#181818;stroke-width:1;" x1="47.5718" x2="331.1577" y1="170.6953" y2="170.6953"/><text fill="#000000" font-family="sans-serif" font-size="13" lengthAdjust="spacing" textLength="214.5508" x="54.5718" y="165.6294">Acceder a la seccion Mis pedidos</text></g><g class="message" data-entity-1="part2" data-entity-2="part2" data-source-line="8" id="msg4"><line style="stroke:#181818;stroke-width:1;" x1="337.1577" x2="379.1577" y1="199.8281" y2="199.8281"/><line style="stroke:#181818;stroke-width:1;" x1="379.1577" x2="379.1577" y1="199.8281" y2="212.8281"/><line style="stroke:#181818;stroke-width:1;" x1="337.1577" x2="379.1577" y1="212.8281" y2="212.8281"/><line style="stroke:#181818;stroke-width:1;" x1="338.1577" x2="348.1577" y1="212.8281" y2="208.8281"/><line style="stroke:#181818;stroke-width:1;" x1="338.1577" x2="348.1577" y1="212.8281" y2="216.8281"/><text fill="#000000" font-family="sans-serif" font-size="13" lengthAdjust="spacing" textLength="208.5269" x="344.1577" y="194.7622">Consultar los pedidos asociados</text></g><g class="message" data-entity-1="part2" data-entity-2="part1" data-source-line="9" id="msg5"><polygon fill="#181818" points="58.5718,237.9609,48.5718,241.9609,58.5718,245.9609,54.5718,241.9609" style="stroke:#181818;stroke-width:1;stroke-linejoin:miter;stroke-miterlimit:10;"/><line style="stroke:#181818;stroke-width:1;stroke-dasharray:2,2;" x1="52.5718" x2="336.1577" y1="241.9609" y2="241.9609"/><text fill="#000000" font-family="sans-serif" font-size="13" lengthAdjust="spacing" textLength="172.2056" x="64.5718" y="236.895">Mostrar la lista de pedidos</text></g><g class="message" data-entity-1="part1" data-entity-2="part2" data-source-line="10" id="msg6"><polygon fill="#181818" points="325.1577,267.0938,335.1577,271.0938,325.1577,275.0938,329.1577,271.0938" style="stroke:#181818;stroke-width:1;stroke-linejoin:miter;stroke-miterlimit:10;"/><line style="stroke:#181818;stroke-width:1;" x1="47.5718" x2="331.1577" y1="271.0938" y2="271.0938"/><text fill="#000000" font-family="sans-serif" font-size="13" lengthAdjust="spacing" textLength="144.333" x="54.5718" y="266.0278">Seleccionar un pedido</text></g><g class="message" data-entity-1="part2" data-entity-2="part1" data-source-line="11" id="msg7"><polygon fill="#181818" points="58.5718,296.2266,48.5718,300.2266,58.5718,304.2266,54.5718,300.2266" style="stroke:#181818;stroke-width:1;stroke-linejoin:miter;stroke-miterlimit:10;"/><line style="stroke:#181818;stroke-width:1;stroke-dasharray:2,2;" x1="52.5718" x2="336.1577" y1="300.2266" y2="300.2266"/><text fill="#000000" font-family="sans-serif" font-size="13" lengthAdjust="spacing" textLength="230.2168" x="64.5718" y="295.1606">Mostrar el estado actual del pedido</text></g><path d="M10,315.2266 L79.4512,315.2266 L79.4512,322.3594 L69.4512,332.3594 L10,332.3594 L10,315.2266" fill="#EEEEEE" style="stroke:#000000;stroke-width:1.5;"/><rect fill="none" height="75.3984" style="stroke:#000000;stroke-width:1.5;" width="372.3525" x="10" y="315.2266"/><text fill="#000000" font-family="sans-serif" font-size="13" font-weight="700" lengthAdjust="spacing" textLength="24.4512" x="25" y="328.2935">opt</text><text fill="#000000" font-family="sans-serif" font-size="11" font-weight="700" lengthAdjust="spacing" textLength="190.5449" x="94.4512" y="327.437">[Consultar pedidos anteriores]</text><g class="message" data-entity-1="part1" data-entity-2="part2" data-source-line="14" id="msg8"><polygon fill="#181818" points="325.1577,349.4922,335.1577,353.4922,325.1577,357.4922,329.1577,353.4922" style="stroke:#181818;stroke-width:1;stroke-linejoin:miter;stroke-miterlimit:10;"/><line style="stroke:#181818;stroke-width:1;" x1="47.5718" x2="331.1577" y1="353.4922" y2="353.4922"/><text fill="#000000" font-family="sans-serif" font-size="13" lengthAdjust="spacing" textLength="200.021" x="54.5718" y="348.4263">Seleccionar un pedido anterior</text></g><g class="message" data-entity-1="part2" data-entity-2="part1" data-source-line="15" id="msg9"><polygon fill="#181818" points="58.5718,378.625,48.5718,382.625,58.5718,386.625,54.5718,382.625" style="stroke:#181818;stroke-width:1;stroke-linejoin:miter;stroke-miterlimit:10;"/><line style="stroke:#181818;stroke-width:1;stroke-dasharray:2,2;" x1="52.5718" x2="336.1577" y1="382.625" y2="382.625"/><text fill="#000000" font-family="sans-serif" font-size="13" lengthAdjust="spacing" textLength="117.0127" x="64.5718" y="377.5591">Mostrar su estado</text></g><path d="M10,404.625 L74.4429,404.625 L74.4429,411.7578 L64.4429,421.7578 L10,421.7578 L10,404.625" fill="#EEEEEE" style="stroke:#000000;stroke-width:1.5;"/><rect fill="none" height="46.2656" style="stroke:#000000;stroke-width:1.5;" width="372.3525" x="10" y="404.625"/><text fill="#000000" font-family="sans-serif" font-size="13" font-weight="700" lengthAdjust="spacing" textLength="19.4429" x="25" y="417.6919">alt</text><text fill="#000000" font-family="sans-serif" font-size="11" font-weight="700" lengthAdjust="spacing" textLength="203.8491" x="89.4429" y="416.8354">[No existen pedidos registrados]</text><g class="message" data-entity-1="part2" data-entity-2="part1" data-source-line="19" id="msg10"><polygon fill="#181818" points="58.5718,438.8906,48.5718,442.8906,58.5718,446.8906,54.5718,442.8906" style="stroke:#181818;stroke-width:1;stroke-linejoin:miter;stroke-miterlimit:10;"/><line style="stroke:#181818;stroke-width:1;stroke-dasharray:2,2;" x1="52.5718" x2="336.1577" y1="442.8906" y2="442.8906"/><text fill="#000000" font-family="sans-serif" font-size="13" lengthAdjust="spacing" textLength="265.5859" x="64.5718" y="437.8247">Informar que no hay pedidos disponibles</text></g><?plantuml-src ZP4zQyCm48Pt_OeZIoT32MJf432s1qFYb2gPYofTKe6YSoKPsd_VS-ge2QGVceJql1_ItK4j9LIxudw-W0AgJITtgstv18tSblK6wWOUcxhbNTF1gksQKYYTAC2iSXPzmXce2EKpkymNebSXMMrxvHFCf8q9Z-e4o0aG4md5ydm63z1w5ga04QCbByuN1KDbXYhoUnkEZAaXSRBLIe_qJSTIQpJ8A3Z5jdeaOMqZz6YieVYTiRoKSKOSNE8CHvdb_iJrhbHNpTOKKnWrdCPlLc0mvzni9z5zLMBHu2Vs3tDqWEnj2FZ_1-Kun9sLWlfqqJttvl44Im6Z05x_hvAL9ztllU8mzHBeZH3A9UW8y7qSlizL0Xxio8zVyhDdw_Tqcl3RWE09NjL7TZ0szkJjY-FNSD8d?></g></svg>