<svg xmlns="http://www.w3.org/2000/svg" xmlns:xlink="http://www.w3.org/1999/xlink" contentstyletype="text/css" data-diagram-type="SEQUENCE" height="621px" preserveAspectRatio="none" style="width:606px;height:621px;background:#FFFFFF;" version="1.1" viewBox="0 0 606 621" width="606px" zoomAndPan="magnify" overflow="visible"><?plantuml 1.2026.6?><defs/><g><rect fill="none" height="75.3984" style="stroke:#000000;stroke-width:1.5;" width="413.5645" x="10" y="386.4922"/><rect fill="none" height="46.2656" style="stroke:#000000;stroke-width:1.5;" width="413.5645" x="10" y="475.8906"/><g class="participant-lifeline" data-entity-uid="part1" data-qualified-name="A_DSS17" data-source-line="2" id="part1-lifeline"><g><title>Administrador</title><rect fill="#000000" fill-opacity="0.00000" height="457.8594" width="8" x="68.54" y="81.2969"/><line style="stroke:#181818;stroke-width:0.5;stroke-dasharray:5,5;" x1="72" x2="72" y1="81.2969" y2="539.1563"/></g></g><g class="participant-lifeline" data-entity-uid="part2" data-qualified-name="S_DSS17" data-source-line="3" id="part2-lifeline"><g><title>Sistema</title><rect fill="#000000" fill-opacity="0.00000" height="457.8594" width="8" x="374.3696" y="81.2969"/><line style="stroke:#181818;stroke-width:0.5;stroke-dasharray:5,5;" x1="378.1748" x2="378.1748" y1="81.2969" y2="539.1563"/></g></g><g class="participant participant-head" data-entity-uid="part1" data-qualified-name="A_DSS17" data-source-line="2" id="part1-head"><text fill="#000000" font-family="sans-serif" font-size="14" lengthAdjust="spacing" textLength="99.0801" x="20" y="77.9951">Administrador</text><ellipse cx="72.54" cy="13.5" fill="#E2E2F0" rx="8" ry="8" style="stroke:#181818;stroke-width:0.5;"/><path d="M72.54,21.5 L72.54,48.5 M59.54,29.5 L85.54,29.5 M72.54,48.5 L59.54,63.5 M72.54,48.5 L85.54,63.5" fill="none" style="stroke:#181818;stroke-width:0.5;"/></g><g class="participant participant-tail" data-entity-uid="part1" data-qualified-name="A_DSS17" data-source-line="2" id="part1-tail"><text fill="#000000" font-family="sans-serif" font-size="14" lengthAdjust="spacing" textLength="99.0801" x="20" y="551.1514">Administrador</text><ellipse cx="72.54" cy="562.9531" fill="#E2E2F0" rx="8" ry="8" style="stroke:#181818;stroke-width:0.5;"/><path d="M72.54,570.9531 L72.54,597.9531 M59.54,578.9531 L85.54,578.9531 M72.54,597.9531 L59.54,612.9531 M72.54,597.9531 L85.54,612.9531" fill="none" style="stroke:#181818;stroke-width:0.5;"/></g><g class="participant participant-head" data-entity-uid="part2" data-qualified-name="S_DSS17" data-source-line="3" id="part2-head"><rect fill="#E2E2F0" height="30.2969" rx="2.5" ry="2.5" style="stroke:#181818;stroke-width:0.5;" width="70.3896" x="343.1748" y="50"/><text fill="#000000" font-family="sans-serif" font-size="14" lengthAdjust="spacing" textLength="56.3896" x="350.1748" y="69.9951">Sistema</text></g><g class="participant participant-tail" data-entity-uid="part2" data-qualified-name="S_DSS17" data-source-line="3" id="part2-tail"><rect fill="#E2E2F0" height="30.2969" rx="2.5" ry="2.5" style="stroke:#181818;stroke-width:0.5;" width="70.3896" x="343.1748" y="538.1563"/><text fill="#000000" font-family="sans-serif" font-size="14" lengthAdjust="spacing" textLength="56.3896" x="350.1748" y="558.1514">Sistema</text></g><g class="message" data-entity-1="part1" data-entity-2="part2" data-source-line="5" id="msg1"><polygon fill="#181818" points="366.3696,108.4297,376.3696,112.4297,366.3696,116.4297,370.3696,112.4297" style="stroke:#181818;stroke-width:1;stroke-linejoin:miter;stroke-miterlimit:10;"/><line style="stroke:#181818;stroke-width:1;" x1="72.54" x2="372.3696" y1="112.4297" y2="112.4297"/><text fill="#000000" font-family="sans-serif" font-size="13" lengthAdjust="spacing" textLength="187.9858" x="79.54" y="107.3638">Acceder al modulo de mesas</text></g><g class="message" data-entity-1="part2" data-entity-2="part1" data-source-line="6" id="msg2"><polygon fill="#181818" points="83.54,137.5625,73.54,141.5625,83.54,145.5625,79.54,141.5625" style="stroke:#181818;stroke-width:1;stroke-linejoin:miter;stroke-miterlimit:10;"/><line style="stroke:#181818;stroke-width:1;stroke-dasharray:2,2;" x1="77.54" x2="377.3696" y1="141.5625" y2="141.5625"/><text fill="#000000" font-family="sans-serif" font-size="13" lengthAdjust="spacing" textLength="195.9839" x="89.54" y="136.4966">Mostrar formulario de registro</text></g><g class="message" data-entity-1="part1" data-entity-2="part2" data-source-line="7" id="msg3"><polygon fill="#181818" points="366.3696,166.6953,376.3696,170.6953,366.3696,174.6953,370.3696,170.6953" style="stroke:#181818;stroke-width:1;stroke-linejoin:miter;stroke-miterlimit:10;"/><line style="stroke:#181818;stroke-width:1;" x1="72.54" x2="372.3696" y1="170.6953" y2="170.6953"/><text fill="#000000" font-family="sans-serif" font-size="13" lengthAdjust="spacing" textLength="281.8296" x="79.54" y="165.6294">Ingresar numero o identificador de la mesa</text></g><g class="message" data-entity-1="part1" data-entity-2="part2" data-source-line="8" id="msg4"><polygon fill="#181818" points="366.3696,195.8281,376.3696,199.8281,366.3696,203.8281,370.3696,199.8281" style="stroke:#181818;stroke-width:1;stroke-linejoin:miter;stroke-miterlimit:10;"/><line style="stroke:#181818;stroke-width:1;" x1="72.54" x2="372.3696" y1="199.8281" y2="199.8281"/><text fill="#000000" font-family="sans-serif" font-size="13" lengthAdjust="spacing" textLength="130.7998" x="79.54" y="194.7622">Indicar la capacidad</text></g><g class="message" data-entity-1="part2" data-entity-2="part2" data-source-line="9" id="msg5"><line style="stroke:#181818;stroke-width:1;" x1="378.3696" x2="420.3696" y1="228.9609" y2="228.9609"/><line style="stroke:#181818;stroke-width:1;" x1="420.3696" x2="420.3696" y1="228.9609" y2="241.9609"/><line style="stroke:#181818;stroke-width:1;" x1="379.3696" x2="420.3696" y1="241.9609" y2="241.9609"/><polygon fill="#181818" points="389.3696,237.9609,379.3696,241.9609,389.3696,245.9609,385.3696,241.9609" style="stroke:#181818;stroke-width:1;stroke-linejoin:miter;stroke-miterlimit:10;"/><text fill="#000000" font-family="sans-serif" font-size="13" lengthAdjust="spacing" textLength="142.7969" x="385.3696" y="223.895">Validar la informacion</text></g><g class="message" data-entity-1="part2" data-entity-2="part1" data-source-line="10" id="msg6"><polygon fill="#181818" points="83.54,267.0938,73.54,271.0938,83.54,275.0938,79.54,271.0938" style="stroke:#181818;stroke-width:1;stroke-linejoin:miter;stroke-miterlimit:10;"/><line style="stroke:#181818;stroke-width:1;stroke-dasharray:2,2;" x1="77.54" x2="377.3696" y1="271.0938" y2="271.0938"/><text fill="#000000" font-family="sans-serif" font-size="13" lengthAdjust="spacing" textLength="104.9521" x="89.54" y="266.0278">Confirmar datos</text></g><g class="message" data-entity-1="part1" data-entity-2="part2" data-source-line="11" id="msg7"><polygon fill="#181818" points="366.3696,296.2266,376.3696,300.2266,366.3696,304.2266,370.3696,300.2266" style="stroke:#181818;stroke-width:1;stroke-linejoin:miter;stroke-miterlimit:10;"/><line style="stroke:#181818;stroke-width:1;" x1="72.54" x2="372.3696" y1="300.2266" y2="300.2266"/><text fill="#000000" font-family="sans-serif" font-size="13" lengthAdjust="spacing" textLength="119.2852" x="79.54" y="295.1606">Confirmar registro</text></g><g class="message" data-entity-1="part2" data-entity-2="part2" data-source-line="12" id="msg8"><line style="stroke:#181818;stroke-width:1;" x1="378.3696" x2="420.3696" y1="329.3594" y2="329.3594"/><line style="stroke:#181818;stroke-width:1;" x1="420.3696" x2="420.3696" y1="329.3594" y2="342.3594"/><line style="stroke:#181818;stroke-width:1;" x1="379.3696" x2="420.3696" y1="342.3594" y2="342.3594"/><polygon fill="#181818" points="389.3696,338.3594,379.3696,342.3594,389.3696,346.3594,385.3696,342.3594" style="stroke:#181818;stroke-width:1;stroke-linejoin:miter;stroke-miterlimit:10;"/><text fill="#000000" font-family="sans-serif" font-size="13" lengthAdjust="spacing" textLength="208.1016" x="385.3696" y="324.2935">Almacenar los datos de la mesa</text></g><g class="message" data-entity-1="part2" data-entity-2="part1" data-source-line="13" id="msg9"><polygon fill="#181818" points="83.54,367.4922,73.54,371.4922,83.54,375.4922,79.54,371.4922" style="stroke:#181818;stroke-width:1;stroke-linejoin:miter;stroke-miterlimit:10;"/><line style="stroke:#181818;stroke-width:1;stroke-dasharray:2,2;" x1="77.54" x2="377.3696" y1="371.4922" y2="371.4922"/><text fill="#000000" font-family="sans-serif" font-size="13" lengthAdjust="spacing" textLength="165.9468" x="89.54" y="366.4263">Mostrar mensaje de exito</text></g><path d="M10,386.4922 L79.4512,386.4922 L79.4512,393.625 L69.4512,403.625 L10,403.625 L10,386.4922" fill="#EEEEEE" style="stroke:#000000;stroke-width:1.5;"/><rect fill="none" height="75.3984" style="stroke:#000000;stroke-width:1.5;" width="413.5645" x="10" y="386.4922"/><text fill="#000000" font-family="sans-serif" font-size="13" font-weight="700" lengthAdjust="spacing" textLength="24.4512" x="25" y="399.5591">opt</text><text fill="#000000" font-family="sans-serif" font-size="11" font-weight="700" lengthAdjust="spacing" textLength="163.5874" x="94.4512" y="398.7026">[El administrador cancela]</text><g class="message" data-entity-1="part1" data-entity-2="part2" data-source-line="16" id="msg10"><polygon fill="#181818" points="366.3696,420.7578,376.3696,424.7578,366.3696,428.7578,370.3696,424.7578" style="stroke:#181818;stroke-width:1;stroke-linejoin:miter;stroke-miterlimit:10;"/><line style="stroke:#181818;stroke-width:1;" x1="72.54" x2="372.3696" y1="424.7578" y2="424.7578"/><text fill="#000000" font-family="sans-serif" font-size="13" lengthAdjust="spacing" textLength="111.8584" x="79.54" y="419.6919">Cancelar registro</text></g><g class="message" data-entity-1="part2" data-entity-2="part1" data-source-line="17" id="msg11"><polygon fill="#181818" points="83.54,449.8906,73.54,453.8906,83.54,457.8906,79.54,453.8906" style="stroke:#181818;stroke-width:1;stroke-linejoin:miter;stroke-miterlimit:10;"/><line style="stroke:#181818;stroke-width:1;stroke-dasharray:2,2;" x1="77.54" x2="377.3696" y1="453.8906" y2="453.8906"/><text fill="#000000" font-family="sans-serif" font-size="13" lengthAdjust="spacing" textLength="126.293" x="89.54" y="448.8247">Descartar los datos</text></g><path d="M10,475.8906 L74.4429,475.8906 L74.4429,483.0234 L64.4429,493.0234 L10,493.0234 L10,475.8906" fill="#EEEEEE" style="stroke:#000000;stroke-width:1.5;"/><rect fill="none" height="46.2656" style="stroke:#000000;stroke-width:1.5;" width="413.5645" x="10" y="475.8906"/><text fill="#000000" font-family="sans-serif" font-size="13" font-weight="700" lengthAdjust="spacing" textLength="19.4429" x="25" y="488.9575">alt</text><text fill="#000000" font-family="sans-serif" font-size="11" font-weight="700" lengthAdjust="spacing" textLength="299.0786" x="89.4429" y="488.1011">[Ya existe una mesa con el mismo identificador]</text><g class="message" data-entity-1="part2" data-entity-2="part1" data-source-line="21" id="msg12"><polygon fill="#181818" points="83.54,510.1563,73.54,514.1563,83.54,518.1563,79.54,514.1563" style="stroke:#181818;stroke-width:1;stroke-linejoin:miter;stroke-miterlimit:10;"/><line style="stroke:#181818;stroke-width:1;stroke-dasharray:2,2;" x1="77.54" x2="377.3696" y1="514.1563" y2="514.1563"/><text fill="#000000" font-family="sans-serif" font-size="13" lengthAdjust="spacing" textLength="130.7681" x="89.54" y="509.0903">Rechazar el registro</text></g><?plantuml-src VP8nQyCm48Lt_OeZIoT3CmKw54mIIeOiTbleL0xfagf8EYF9KFhhUt8InnGd6gNltNjFqWDisXRMRzNZSWKLDDkNNVlQr0tijstTAjIP8ongussmAKSq71U02UfFqIrNgiEOhROTXWoBLX3oE03j6L1d4ghdonuyGQqr6Og03ZoRtZ4O0ay9axf0bGZgKR3duXxXmD7t3gCT596E9HNFc-p2CSh82A7t51aOhA6GxS7gqgCCS3Yutj8R8ME1D7QehK5pZJSbtz79uK3QK28ApE56bJM7WnL40c3cDEzzXSQEiywr4oyAnPlJQU2qr_tBz1GIVbCHq8_Dh1Ht6ROESFhUKZveSgX0rdpO4p39Mj1vxmqbkTCy3Qme6ANGPVZ04aG-4VJXr00q1o3v9JRvV-ztnwGX_OM_uY7ACPEu_040?></g></svg>