<svg xmlns="http://www.w3.org/2000/svg" xmlns:xlink="http://www.w3.org/1999/xlink" contentstyletype="text/css" data-diagram-type="SEQUENCE" height="636px" preserveAspectRatio="none" style="width:597px;height:636px;background:#FFFFFF;" version="1.1" viewBox="0 0 597 636" width="597px" zoomAndPan="magnify" overflow="visible"><?plantuml 1.2026.6?><defs/><g><rect fill="none" height="75.3984" style="stroke:#000000;stroke-width:1.5;" width="328.0894" x="10" y="357.3594"/><rect fill="none" height="90.2031" style="stroke:#000000;stroke-width:1.5;" width="328.0894" x="10" y="446.7578"/><g class="participant-lifeline" data-entity-uid="part1" data-qualified-name="A_DSS11" data-source-line="2" id="part1-lifeline"><g><title>Usuario</title><rect fill="#000000" fill-opacity="0.00000" height="472.6641" width="8" x="45.6021" y="81.2969"/><line style="stroke:#181818;stroke-width:0.5;stroke-dasharray:5,5;" x1="49" x2="49" y1="81.2969" y2="553.9609"/></g></g><g class="participant-lifeline" data-entity-uid="part2" data-qualified-name="S_DSS11" data-source-line="3" id="part2-lifeline"><g><title>Sistema</title><rect fill="#000000" fill-opacity="0.00000" height="472.6641" width="8" x="288.8945" y="81.2969"/><line style="stroke:#181818;stroke-width:0.5;stroke-dasharray:5,5;" x1="292.6997" x2="292.6997" y1="81.2969" y2="553.9609"/></g></g><g class="participant participant-head" data-entity-uid="part1" data-qualified-name="A_DSS11" data-source-line="2" id="part1-head"><text fill="#000000" font-family="sans-serif" font-size="14" lengthAdjust="spacing" textLength="53.2041" x="20" y="77.9951">Usuario</text><ellipse cx="49.6021" cy="13.5" fill="#E2E2F0" rx="8" ry="8" style="stroke:#181818;stroke-width:0.5;"/><path d="M49.6021,21.5 L49.6021,48.5 M36.6021,29.5 L62.6021,29.5 M49.6021,48.5 L36.6021,63.5 M49.6021,48.5 L62.6021,63.5" fill="none" style="stroke:#181818;stroke-width:0.5;"/></g><g class="participant participant-tail" data-entity-uid="part1" data-qualified-name="A_DSS11" data-source-line="2" id="part1-tail"><text fill="#000000" font-family="sans-serif" font-size="14" lengthAdjust="spacing" textLength="53.2041" x="20" y="565.9561">Usuario</text><ellipse cx="49.6021" cy="577.7578" fill="#E2E2F0" rx="8" ry="8" style="stroke:#181818;stroke-width:0.5;"/><path d="M49.6021,585.7578 L49.6021,612.7578 M36.6021,593.7578 L62.6021,593.7578 M49.6021,612.7578 L36.6021,627.7578 M49.6021,612.7578 L62.6021,627.7578" fill="none" style="stroke:#181818;stroke-width:0.5;"/></g><g class="participant participant-head" data-entity-uid="part2" data-qualified-name="S_DSS11" data-source-line="3" id="part2-head"><rect fill="#E2E2F0" height="30.2969" rx="2.5" ry="2.5" style="stroke:#181818;stroke-width:0.5;" width="70.3896" x="257.6997" y="50"/><text fill="#000000" font-family="sans-serif" font-size="14" lengthAdjust="spacing" textLength="56.3896" x="264.6997" y="69.9951">Sistema</text></g><g class="participant participant-tail" data-entity-uid="part2" data-qualified-name="S_DSS11" data-source-line="3" id="part2-tail"><rect fill="#E2E2F0" height="30.2969" rx="2.5" ry="2.5" style="stroke:#181818;stroke-width:0.5;" width="70.3896" x="257.6997" y="552.9609"/><text fill="#000000" font-family="sans-serif" font-size="14" lengthAdjust="spacing" textLength="56.3896" x="264.6997" y="572.9561">Sistema</text></g><g class="message" data-entity-1="part1" data-entity-2="part2" data-source-line="5" id="msg1"><polygon fill="#181818" points="280.8945,108.4297,290.8945,112.4297,280.8945,116.4297,284.8945,112.4297" style="stroke:#181818;stroke-width:1;stroke-linejoin:miter;stroke-miterlimit:10;"/><line style="stroke:#181818;stroke-width:1;" x1="49.6021" x2="286.8945" y1="112.4297" y2="112.4297"/><text fill="#000000" font-family="sans-serif" font-size="13" lengthAdjust="spacing" textLength="214.1509" x="56.6021" y="107.3638">Seleccionar un pedido pendiente</text></g><g class="message" data-entity-1="part2" data-entity-2="part1" data-source-line="6" id="msg2"><polygon fill="#181818" points="60.6021,137.5625,50.6021,141.5625,60.6021,145.5625,56.6021,141.5625" style="stroke:#181818;stroke-width:1;stroke-linejoin:miter;stroke-miterlimit:10;"/><line style="stroke:#181818;stroke-width:1;stroke-dasharray:2,2;" x1="54.6021" x2="291.8945" y1="141.5625" y2="141.5625"/><text fill="#000000" font-family="sans-serif" font-size="13" lengthAdjust="spacing" textLength="219.2925" x="66.6021" y="136.4966">Mostrar la informacion del pedido</text></g><g class="message" data-entity-1="part1" data-entity-2="part2" data-source-line="7" id="msg3"><polygon fill="#181818" points="280.8945,166.6953,290.8945,170.6953,280.8945,174.6953,284.8945,170.6953" style="stroke:#181818;stroke-width:1;stroke-linejoin:miter;stroke-miterlimit:10;"/><line style="stroke:#181818;stroke-width:1;" x1="49.6021" x2="286.8945" y1="170.6953" y2="170.6953"/><text fill="#000000" font-family="sans-serif" font-size="13" lengthAdjust="spacing" textLength="197.8247" x="56.6021" y="165.6294">Seleccionar la opcion cancelar</text></g><g class="message" data-entity-1="part2" data-entity-2="part1" data-source-line="8" id="msg4"><polygon fill="#181818" points="60.6021,195.8281,50.6021,199.8281,60.6021,203.8281,56.6021,199.8281" style="stroke:#181818;stroke-width:1;stroke-linejoin:miter;stroke-miterlimit:10;"/><line style="stroke:#181818;stroke-width:1;stroke-dasharray:2,2;" x1="54.6021" x2="291.8945" y1="199.8281" y2="199.8281"/><text fill="#000000" font-family="sans-serif" font-size="13" lengthAdjust="spacing" textLength="141.1846" x="66.6021" y="194.7622">Solicitar confirmacion</text></g><g class="message" data-entity-1="part1" data-entity-2="part2" data-source-line="9" id="msg5"><polygon fill="#181818" points="280.8945,224.9609,290.8945,228.9609,280.8945,232.9609,284.8945,228.9609" style="stroke:#181818;stroke-width:1;stroke-linejoin:miter;stroke-miterlimit:10;"/><line style="stroke:#181818;stroke-width:1;" x1="49.6021" x2="286.8945" y1="228.9609" y2="228.9609"/><text fill="#000000" font-family="sans-serif" font-size="13" lengthAdjust="spacing" textLength="126.6865" x="56.6021" y="223.895">Confirmar la accion</text></g><g class="message" data-entity-1="part2" data-entity-2="part2" data-source-line="10" id="msg6"><line style="stroke:#181818;stroke-width:1;" x1="292.8945" x2="334.8945" y1="258.0938" y2="258.0938"/><line style="stroke:#181818;stroke-width:1;" x1="334.8945" x2="334.8945" y1="258.0938" y2="271.0938"/><line style="stroke:#181818;stroke-width:1;" x1="293.8945" x2="334.8945" y1="271.0938" y2="271.0938"/><polygon fill="#181818" points="303.8945,267.0938,293.8945,271.0938,303.8945,275.0938,299.8945,271.0938" style="stroke:#181818;stroke-width:1;stroke-linejoin:miter;stroke-miterlimit:10;"/><text fill="#000000" font-family="sans-serif" font-size="13" lengthAdjust="spacing" textLength="284.6289" x="299.8945" y="253.0278">Registrar fecha, hora y usuario responsable</text></g><g class="message" data-entity-1="part2" data-entity-2="part2" data-source-line="11" id="msg7"><line style="stroke:#181818;stroke-width:1;" x1="292.8945" x2="334.8945" y1="300.2266" y2="300.2266"/><line style="stroke:#181818;stroke-width:1;" x1="334.8945" x2="334.8945" y1="300.2266" y2="313.2266"/><line style="stroke:#181818;stroke-width:1;" x1="293.8945" x2="334.8945" y1="313.2266" y2="313.2266"/><polygon fill="#181818" points="303.8945,309.2266,293.8945,313.2266,303.8945,317.2266,299.8945,313.2266" style="stroke:#181818;stroke-width:1;stroke-linejoin:miter;stroke-miterlimit:10;"/><text fill="#000000" font-family="sans-serif" font-size="13" lengthAdjust="spacing" textLength="213.0591" x="299.8945" y="295.1606">Actualizar el estado a Cancelado</text></g><g class="message" data-entity-1="part2" data-entity-2="part1" data-source-line="12" id="msg8"><polygon fill="#181818" points="60.6021,338.3594,50.6021,342.3594,60.6021,346.3594,56.6021,342.3594" style="stroke:#181818;stroke-width:1;stroke-linejoin:miter;stroke-miterlimit:10;"/><line style="stroke:#181818;stroke-width:1;stroke-dasharray:2,2;" x1="54.6021" x2="291.8945" y1="342.3594" y2="342.3594"/><text fill="#000000" font-family="sans-serif" font-size="13" lengthAdjust="spacing" textLength="138.2837" x="66.6021" y="337.2935">Mostrar confirmacion</text></g><path d="M10,357.3594 L79.4512,357.3594 L79.4512,364.4922 L69.4512,374.4922 L10,374.4922 L10,357.3594" fill="#EEEEEE" style="stroke:#000000;stroke-width:1.5;"/><rect fill="none" height="75.3984" style="stroke:#000000;stroke-width:1.5;" width="328.0894" x="10" y="357.3594"/><text fill="#000000" font-family="sans-serif" font-size="13" font-weight="700" lengthAdjust="spacing" textLength="24.4512" x="25" y="370.4263">opt</text><text fill="#000000" font-family="sans-serif" font-size="11" font-weight="700" lengthAdjust="spacing" textLength="202.603" x="94.4512" y="369.5698">[El usuario cancela la operacion]</text><g class="message" data-entity-1="part1" data-entity-2="part2" data-source-line="15" id="msg9"><polygon fill="#181818" points="280.8945,391.625,290.8945,395.625,280.8945,399.625,284.8945,395.625" style="stroke:#181818;stroke-width:1;stroke-linejoin:miter;stroke-miterlimit:10;"/><line style="stroke:#181818;stroke-width:1;" x1="49.6021" x2="286.8945" y1="395.625" y2="395.625"/><text fill="#000000" font-family="sans-serif" font-size="13" lengthAdjust="spacing" textLength="129.1558" x="56.6021" y="390.5591">Desistir de cancelar</text></g><g class="message" data-entity-1="part2" data-entity-2="part1" data-source-line="16" id="msg10"><polygon fill="#181818" points="60.6021,420.7578,50.6021,424.7578,60.6021,428.7578,56.6021,424.7578" style="stroke:#181818;stroke-width:1;stroke-linejoin:miter;stroke-miterlimit:10;"/><line style="stroke:#181818;stroke-width:1;stroke-dasharray:2,2;" x1="54.6021" x2="291.8945" y1="424.7578" y2="424.7578"/><text fill="#000000" font-family="sans-serif" font-size="13" lengthAdjust="spacing" textLength="128.978" x="66.6021" y="419.6919">No realizar cambios</text></g><path d="M10,446.7578 L74.4429,446.7578 L74.4429,453.8906 L64.4429,463.8906 L10,463.8906 L10,446.7578" fill="#EEEEEE" style="stroke:#000000;stroke-width:1.5;"/><rect fill="none" height="90.2031" style="stroke:#000000;stroke-width:1.5;" width="328.0894" x="10" y="446.7578"/><text fill="#000000" font-family="sans-serif" font-size="13" font-weight="700" lengthAdjust="spacing" textLength="19.4429" x="25" y="459.8247">alt</text><text fill="#000000" font-family="sans-serif" font-size="11" font-weight="700" lengthAdjust="spacing" textLength="214.0542" x="89.4429" y="458.9683">[El pedido ya esta en preparacion]</text><g class="message" data-entity-1="part2" data-entity-2="part1" data-source-line="20" id="msg11"><polygon fill="#181818" points="60.6021,481.0234,50.6021,485.0234,60.6021,489.0234,56.6021,485.0234" style="stroke:#181818;stroke-width:1;stroke-linejoin:miter;stroke-miterlimit:10;"/><line style="stroke:#181818;stroke-width:1;stroke-dasharray:2,2;" x1="54.6021" x2="291.8945" y1="485.0234" y2="485.0234"/><text fill="#000000" font-family="sans-serif" font-size="13" lengthAdjust="spacing" textLength="157.3901" x="66.6021" y="479.9575">Rechazar la cancelacion</text></g><line style="stroke:#000000;stroke-width:1;stroke-dasharray:2,2;" x1="10" x2="338.0894" y1="494.0234" y2="494.0234"/><text fill="#000000" font-family="sans-serif" font-size="11" font-weight="700" lengthAdjust="spacing" textLength="177.9014" x="15" y="504.2339">[El pedido ya fue entregado]</text><g class="message" data-entity-1="part2" data-entity-2="part1" data-source-line="22" id="msg12"><polygon fill="#181818" points="60.6021,524.9609,50.6021,528.9609,60.6021,532.9609,56.6021,528.9609" style="stroke:#181818;stroke-width:1;stroke-linejoin:miter;stroke-miterlimit:10;"/><line style="stroke:#181818;stroke-width:1;stroke-dasharray:2,2;" x1="54.6021" x2="291.8945" y1="528.9609" y2="528.9609"/><text fill="#000000" font-family="sans-serif" font-size="13" lengthAdjust="spacing" textLength="157.3901" x="66.6021" y="523.895">Rechazar la cancelacion</text></g><?plantuml-src dL9FQuCm5B_dKpnwsMN2lEum4ErXq7MZqlDuZSys41D9ug7zz7l6jAxWDfWNGNx_VGzGrJMK--mfpo63ijYMwqsnWuzrzLgz2vJ1EbZj_O1EsHMWX-AJ6NakUdH1ITMZ2R2gbG_KOGJK2I0I4hANwpTuXfeqIQciGGU3WPuQrLX-cKQH2IIko8nPnOtrPdrmpD08ohJMTJXAG4CwAVnjnbJRHvP48qcZ-y6hjffx1QP8QrgLl9ODoeI8yXYjPjNlm1qTrLIX9Nd2HpXPXt26OLeM7FdU6ey7JSi2XGm3QdLX1IvDFY3FXb1ENNY0tuUxgo9i7s2jR-Pfa6aYSXC8-5diN97dAihn-lEK8tevmNOibv9Bx0xAUi5_MmZKCKIwW3F6Ka1y4uxukEOKoxgxSSVBj7oA4HcaFTthjWEnR71q77VwXw9flW00?></g></svg>